<?xml version="1.0" encoding="utf-8"?>
<!-- Generator: Adobe Illustrator 27.5.0, SVG Export Plug-In . SVG Version: 6.00 Build 0)  -->
<svg version="1.1" xmlns="http://www.w3.org/2000/svg" xmlns:xlink="http://www.w3.org/1999/xlink" x="0px" y="0px"
	 viewBox="0 0 1100 800" style="enable-background:new 0 0 1100 800;" xml:space="preserve">
<g id="Background">
	<rect style="fill:#FFFFFF;" width="1100" height="800"/>
</g>
<g id="Shadow">
	<g style="opacity:0.5;">
		<path style="fill:#EED5D5;" d="M503.964,626.118c-28.193,0.084-56.385,0.762-84.528,3.892c-10.611,1.18-21,3.776-31.635,4.823
			c-21.244,2.092-42.107,5.993-63.426,7.793c-17.168,1.449-34.408,2.305-51.526,4.143c-16.049,1.724-33.816,1.326-49.742-1.522
			c-11.79-2.109-23.633-3.296-35.225-6.682c-12.967-3.789-27.055-6.498-40.565-6.4c-19.266,0.139-38.028,0.155-56.466,6.845
			c-6.472,2.348-14.395,6.209-19.31,11.137c-11.251,11.282-12.774,39.432-1.54,51.133c18.921,19.693,59.305,27.42,85.827,27.785
			c29.063,0.4,57.296-1.758,86.402-3.026c27.045-1.179,54.023-2.856,81.113-2.797c55.328,0.121,110.664,0,165.893-3.696
			c51.888-3.472,103.907-2.28,155.909-2.28c53.326,0,106.291,0.419,159.233,7.506c23.067,3.088,46.568,4.169,69.75,6.332
			c20.762,1.938,40.714-0.038,61.394-1.829c17.365-1.504,34.616-5.964,50.391-13.503c12.487-5.968,34.749-24.507,38.579-38.752
			c10.736-39.935-151.3-38.975-176.179-38.885c-27.831,0.101-55.884,1.016-83.693-0.045c-11.698-0.446-23.224-2.733-34.641-5.238
			c-11.372-2.495-22.83-1.861-34.362-2.91c-48.092-4.374-96.291-3.734-144.536-3.734
			C535.379,626.209,519.671,626.071,503.964,626.118z"/>
	</g>
</g>
<g id="Object">
	<g>
		<path style="fill:#EAC1A4;" d="M371.866,302.747c0.143-0.12,0.298-0.258,0.463-0.427c1.56-1.599,2.29-4.052,1.927-6.243
			c-1.372-0.343-2.743-0.686-4.115-1.029c-0.713,1.553-1.673,2.991-2.834,4.244c-0.26,0.281-0.585,0.575-0.967,0.542
			c-0.361-0.031-0.626-0.341-0.841-0.632c-3.148-4.257-4.654-9.697-4.143-14.967c-0.03,0.313-3.735-0.519-4.066-0.627
			c-1.709-0.56-2.121-0.608-3.848,0.004c-0.275,0.056-0.531,0.148-0.767,0.272c-0.849,0.301-1.699,0.602-2.548,0.904
			c-0.538,0.191-1.111,0.408-1.437,0.876c-0.317,0.456-0.329,1.05-0.33,1.605c-0.008,4.971-0.016,9.943-0.024,14.914
			c-0.001,0.624,0.001,1.266,0.237,1.843c0.261,0.64,0.782,1.133,1.303,1.586c2.397,2.08,5.146,3.753,8.096,4.925
			c0.536,0.213,1.105,0.428,1.471,0.874c0.284,0.346,0.41,0.792,0.53,1.224c0.761,2.749,1.521,5.498,2.282,8.247
			c3.478-1.175,7.149-1.772,10.82-1.76c0.536-3.765,0.085-7.666-1.296-11.209c-0.396-1.016-1.016-2.285-0.952-3.404
			C370.887,303.461,371.274,303.246,371.866,302.747z"/>
		<polygon style="fill:#5D66D3;" points="357.01,312.004 374.144,309.197 391.618,357.02 432.901,349.988 423.91,405.012 
			371.395,373.56 		"/>
	</g>
	<g>
		<g>
			<g id="XMLID_115_">
				<path id="XMLID_116_" style="fill:#EACDB0;" d="M641.889,584.177l0.627,38.111c-0.256,10.574,0.696,21.115,1.34,31.654
					c0.597,9.79-1.376,19.879,3.269,28.952c1.456,2.845,4.556,4.827,6.914,1.54c1.817-2.532,0.981-6.915,1.43-9.855
					c3.373-22.093,9.653-43.639,12.786-65.774C671.536,585.62,662.565,586.232,641.889,584.177z"/>
			</g>
			<polygon style="fill:#292949;" points="644.054,676.381 641.604,682.738 653.661,693.351 664.707,693.806 668.279,687.979 
				653.424,675.061 			"/>
		</g>
		<g>
			<g id="XMLID_113_">
				<path id="XMLID_114_" style="fill:#EACDB0;" d="M614.891,584.548c0,0-6.952,37.479-6.952,37.479
					c-2.409,16.765-7.887,33.093-10.296,49.859c-0.554,3.855-0.275,8.072-1.886,11.708c-1.576,3.557-4.661,3.698-7.384,1.285
					c-3.648-3.234-1.965-9.011-1.898-13.428c0.446-29.423-1.868-58.429-2.425-87.9c-0.007-0.386,0.01-0.829,0.308-1.074
					c0.243-0.2,0.589-0.195,0.903-0.174C588.123,582.494,614.74,585.358,614.891,584.548z"/>
			</g>
			<polygon style="fill:#292949;" points="586.389,677.945 582.568,683.586 591.918,696.646 602.576,699.583 607.371,694.711 
				595.815,678.775 			"/>
		</g>
		<polygon style="fill:#292949;" points="681.169,608.427 675.969,553.94 673.462,518.538 665.031,489.623 619.508,482.558 
			563.226,492.205 560.52,503.14 571.352,604.358 625.638,608.427 624.902,545.429 633.276,584.477 632.92,608.427 		"/>
	</g>
	<path style="fill:#FFFFFF;" d="M575.173,383.166c-0.076,1.84-0.127,3.679-0.16,5.514c-0.659,37.374,1.402,75.225,1.638,112.909
		c19.3-3.021,38.812-4.685,58.344-4.981c4.521-0.068,25.077,3.106,27.939,0.406c3.884-3.663-0.387-2.973-0.103-7.746
		c0.368-6.175-2.599-11.232-1.478-18.549c1.317-8.6,3.937-17.106,5.447-25.704c3.026-17.241,4.848-34.693,5.44-52.188
		c0.524-15.517-0.038-31.61-6.711-45.629c-16.456-34.571-69.509-33.949-84.066,2.148
		C577.151,360.036,575.654,371.611,575.173,383.166z"/>
	<path style="fill:#EACDB0;" d="M681.055,309.207c6.524-6.606,9.936-14.195,13.541-23.815c2.682-7.158,5.086-14.435,7.458-21.7
		c1.568-4.807,2.972-9.009,3.672-13.949c0.586-4.134,3.622-9.576,0.388-13.338c0.94-1.579,3.473-1.854,4.73-0.514
		c0.198,0.211,0.377,0.459,0.646,0.565c0.46,0.182,0.967-0.13,1.304-0.491c0.984-1.058,1.279-2.559,1.754-3.925
		c0.765-2.201,2.047-5.759,3.946-7.17c1.54-1.144,3.442-1.664,5.296-2.16c0.343-0.092,0.717-0.182,1.043-0.042
		c0.276,0.118,0.46,0.378,0.63,0.625c1.566,2.284,3.353,4.55,4.62,6.977c-2.71,1.744-3.515,4.738-5.258,7.292
		c-2.289,3.354-4.897,5.909-5.722,10.081c-1.283,6.483-2.058,13.061-3.428,19.541c-2.678,12.661-6.13,25.13-9.508,37.616
		c-2.262,8.267-4.572,16.726-8.993,24.147c-4.354,7.309-9.763,11.349-16.883,16.001c-1.637,1.069-3.335,2.163-5.262,2.496
		c-2.923,0.504-5.904-0.858-8.125-2.824c-5.873-5.196-7.002-14.94-2.471-21.341c2.432-3.437,6.085-5.766,9.543-8.169
		C676.701,313.218,679.028,311.26,681.055,309.207z"/>
	<path style="fill:#8CABEF;" d="M635.038,334.671l-14.409,26.259c0.753,26.527,1.506,53.053,2.259,79.58
		c0.347,12.225,0.694,24.45,1.041,36.675c0.121,4.245,0.226,8.491,0.362,12.735c0.061,1.905-0.465,5.112,0.622,6.667
		c2.359,3.375,10.982,2.323,14.744,2.619c5.866,0.461,11.818,0.941,17.343,2.966c3.679,1.349,7.165,3.379,11.045,3.924
		c0.872,0.122,1.847,0.14,2.531-0.413c0.766-0.619,0.896-1.716,0.969-2.698c1.348-18.211,1.377-36.986,2.387-55.392
		c0.827-15.063,2.935-30.981,1.628-46.063c-0.022-0.251-0.046-0.504-0.092-0.752c-1.336-7.255,0-31.219,0-31.222
		c0.056-1.008,3.504-3.619,4.17-4.307c3.427-3.54,6.855-7.08,10.283-10.62c6.839-7.064,20.044-15.791,14.736-27.216
		c-0.646-1.389-1.628-2.594-2.674-3.713c-7.75-8.3-17.655-12.955-23.203-23.175c-9.708,4.789-17.62,14.249-27.947,18.189
		c-5.376,2.046-11.06,2.75-16.681,1.372c-3.306-0.81-10.426-3.387-8.638,3.156C626.536,326.986,632.511,331.664,635.038,334.671z"/>
	<path style="fill:#8CABEF;" d="M603.69,337.141l14.409,26.259c-0.302,0-1.827,64.369-1.951,68.714
		c-0.469,16.523-0.938,33.046-1.407,49.569c-0.13,4.592,0.487,9.972-0.411,14.486c-1.254,6.303-7.889,5.062-13.543,5.572
		c-12.367,1.115-25.388,3.226-37.789,2.6c-3.577-0.181,1.131-74.832,1.124-81.798c-0.024-25.056-5.193-52.854,7.534-75.575
		c3.703-6.611,10.231-17.209,17.438-20.473c6.715-3.042,16.328-3.559,23.618-5.264l0.38,4.724L603.69,337.141z"/>
	<g>
		<g>
			<path style="fill:#292949;" d="M634.964,273.535c2.268,3.975,3.362,8.555,3.563,13.128c0.054,1.216,0.137,2.62,1.12,3.338
				c1.052,0.768,0.127,2.454,0.928,1.426c0.8-1.028,3.519-4.599,3.641-5.896c0.286-3.039,0.282-6.105-0.013-9.144
				c-0.257-2.642-0.797-5.403-2.526-7.418c-1.025-1.195-2.393-2.034-3.741-2.848c-1.953-1.181-3.967-2.371-6.211-2.789
				c-3.868-0.721-6.24,0.667-2.827,3.364C631.343,268.629,633.41,270.812,634.964,273.535z"/>
			<g>
				<path style="fill:#EACDB0;" d="M610.797,325.406c0.026,1.871-0.358,3.813,1.293,5.264c0.794,0.698,1.867,0.977,2.91,1.143
					c2.698,0.427,5.493,0.229,8.104-0.575c1.074-0.331,2.144-0.78,2.955-1.558c0.958-0.919,1.006-1.791,1.052-2.995
					c0.054-1.411,0.339-2.845,0.523-4.275c0.404-3.129,0.585-6.283,0.676-9.435c4.635-0.795,10.085-2.294,11.67-7.148
					c0.499-1.529,0.517-3.192,0.529-4.819c0.049-6.726,0.098-13.452,0.148-20.178c0.017-2.326,0.022-4.723-0.774-6.882
					c-1.398-3.788-4.95-6.046-8.432-7.466c-8.888-3.626-19.248-3.481-27.452,1.676c-2.183,1.372-4.244,3.138-5.501,5.534
					c-1.939,3.694-1.695,8.256-1.394,12.52c0.278,3.935,0.556,7.87,0.834,11.806c0.32,4.526,1,9.736,4.514,12.126
					c1.866,1.269,4.278,1.502,5.886,3.145c2.807,2.867,1.469,7.15,2.299,10.624C610.753,324.396,610.79,324.898,610.797,325.406z"/>
			</g>
			<path style="fill:#292949;" d="M642.141,298.325c-0.075-1.247-0.62-4.902-2.496-2.605c-0.491,0.601-0.611,1.45-0.642,2.249
				c-0.03,0.8,0.006,1.623-0.246,2.376c-0.579,1.728-2.491,2.515-4.195,2.484c-0.678-0.012-1.368-0.124-1.967-0.465
				c-0.582-0.331-1.043-0.858-1.494-1.374c-1.094-1.255-2.187-2.51-3.281-3.765c-1.88-2.157-5.608-1.224-8.141-0.894
				c-2.919,0.381-5.839,1.262-8.225,3.182c-0.241,0.194-0.476,0.398-0.711,0.601c-0.575,0.496-1.153,0.987-1.821,1.313
				c-2.255,1.098-5.046-0.048-6.626-2.101c-0.724-0.941-1.4-2.152-2.525-2.31c-0.88-0.123-1.737,0.508-2.188,1.331
				c-0.451,0.824-0.573,1.805-0.634,2.76c-0.222,3.474,0.256,7.057,1.762,10.138c3.266,6.682,9.579,7.502,15.924,7.353
				c2.508-0.059,5.016-0.118,7.524-0.178c4.585-0.108,9.432-0.298,13.294-2.964c3.407-2.351,5.432-6.349,6.263-10.536
				C642.145,302.76,642.273,300.529,642.141,298.325z M625.365,307.796c-2.415,1.624-5.076,1.711-7.767,0.901
				c-1.144-0.344-0.659-2.264,0.487-1.919c2.23,0.671,4.335,0.654,6.346-0.698C625.442,305.399,626.371,307.12,625.365,307.796z"/>
			<path style="fill:#292949;" d="M643.098,261.879c0.443-1.63,0.77-3.291,0.979-4.967c-1.552,0.545-3.242,0.689-4.864,0.417
				c-0.004-0.967-0.008-1.934-0.011-2.901c-0.007-0.804-10.889-1.368-11.773-1.44c-8.278-0.679-15.848-1.325-23.333,3.118
				c-6.394,3.795-10.493,9.462-11.474,16.838c-0.937,7.047,1.369,16.25,5.444,22.099c-0.023-1.876-1.103-6.301-0.66-8.085
				c0.271-1.787,0.888-3.51,1.74-5.1c1.701-3.176,4.335-5.849,7.378-7.756c4.852-3.04,10.493-4.648,16.127-5.433
				c5.162-0.719,11.452-1.383,16.552-0.015c2.451,0.657,2.858,1.272,4.342-1.202c0.262-0.436,2.337-5.53,2.134-5.533
				C644.818,261.905,643.958,261.892,643.098,261.879z"/>
		</g>
	</g>
	<g>
		<g>
			<g>
				<path style="fill:#BBBBBC;" d="M515.518,155.107l3.097,26.228c0.527,4.462-2.824,8.435-7.483,8.875h0
					c-4.66,0.44-8.864-2.82-9.391-7.282l-3.097-26.227c-0.527-4.462,2.823-8.435,7.483-8.875v0
					C510.787,147.385,514.991,150.645,515.518,155.107z"/>
				<path style="fill:#DDDDDD;" d="M518.66,172.953c-6.553,2.716-13.076,5.495-19.568,8.337c-1.839,0.805-0.672,3.648,1.183,2.836
					c6.493-2.842,13.016-5.621,19.568-8.337C521.702,175.018,520.533,172.176,518.66,172.953z"/>
				<path style="fill:#DDDDDD;" d="M517.538,163.453c-6.553,2.716-13.075,5.495-19.568,8.337c-1.839,0.805-0.673,3.648,1.183,2.835
					c6.493-2.842,13.016-5.621,19.568-8.337C520.58,165.518,519.411,162.676,517.538,163.453z"/>
				<path style="fill:#DDDDDD;" d="M515.57,155.233c-6.553,2.716-13.076,5.495-19.568,8.337c-1.839,0.805-0.673,3.648,1.183,2.835
					c6.493-2.842,13.016-5.621,19.568-8.337C518.612,157.298,517.443,154.457,515.57,155.233z"/>
			</g>
			<path style="fill:#AFBCC6;" d="M510.519,148.86c-3.869,1.088-7.726,2.222-11.563,3.423c-2.829,0.885-7.452,1.477-9.44,4.007
				c-1.899,2.417-1.386,6.7-1.399,9.58c-0.018,3.989,0.229,7.977,0.744,11.928c0.462,3.547,1.157,7.054,2.018,10.52
				c0.674,2.714,1.459,5.365,4.434,6.128c6.457,1.656,14.509-2.446,20.243-5.032c3.414-1.54,1.365-7.062-2.075-5.51
				c-4.772,2.152-9.511,4.22-14.738,4.789c-1.962,0.214-1.773,0.07-2.277-1.878c-0.379-1.464-0.696-2.947-0.981-4.433
				c-0.5-2.606-0.886-5.238-1.148-7.881c-0.263-2.644-0.411-5.301-0.437-7.96c-0.014-1.437-0.113-3.109,0.083-4.524
				c0.274-1.974,0.384-1.808,1.942-2.587c2.297-1.149,5.221-1.681,7.667-2.428c2.991-0.913,5.993-1.785,9.002-2.631
				C516.199,153.357,514.106,147.851,510.519,148.86z"/>
			<path style="fill:#AFBCC6;" d="M524.798,146.605c-2.91,0.418-5.687,1.224-8.604,1.613c-0.461,0.044-0.917,0.093-1.366,0.149
				c-3.879,0.485-3.558,6.287,0.427,5.965c1.03-0.083,2.054-0.19,3.073-0.324c2.46-0.131,4.859,0.259,5.949,2.774
				c1.431,3.301,1.77,7.372,1.99,10.905c0.234,3.744,0.03,7.483-0.635,11.172c-0.393,2.181-0.088,2.486-2.228,3.125
				c-1.906,0.569-3.821,1.111-5.731,1.666c-1.945,0.565-2.358,2.335-1.794,3.775c-0.114,1.342,0.593,2.702,2.372,2.987
				c5.273,0.844,11.972,1.018,14.774-4.389c1.438-2.776,0.797-6.334,0.699-9.318c-0.117-3.581-0.234-7.162-0.351-10.742
				c-0.165-5.058,1.174-13.066-2.459-17.313C529.34,146.809,527.154,146.267,524.798,146.605z"/>
			<path style="fill:#CCCCCC;" d="M481.277,185.356c-7.845,2.498-15.752,4.362-23.823,6.111c-5.401,1.171-10.652,2.449-16.16,3.051
				c-5.426,0.593-10.873,1.035-16.275,1.801c-4.037,0.572-17.185,1.308-17.298,6.753c-0.068,3.293,4.368,5.333,6.961,6.523
				c3.841,1.762,7.825,3.519,11.753,5.021c11.771,4.5,24.124,7.554,36.664,9.047c9.919,1.181,20.083,1.373,29.778-0.65
				c1.116-0.233,2.227-0.495,3.33-0.789c0.462-0.123,0.949-0.267,1.261-0.613c0.459-0.508,0.394-1.269,0.302-1.941
				c-1.504-10.878-3.705-21.678-6.585-32.318c-0.367-1.357-0.817-2.817-1.99-3.667C487.291,182.303,483.193,184.746,481.277,185.356
				z"/>
			<g>
				<path style="fill:#DDDDDD;" d="M523.955,147.815c1.568-0.467,3.148,0.606,3.332,2.264l3.369,30.403
					c0.15,1.355-0.699,2.632-1.988,2.989l-12.824,3.547l3.319,28.845l0,0c0.103-0.497,3.775-2.129,4.814-3.177
					c1.852-1.869,3.702-3.013,6.043-4.317c14.916-8.313,31.314-16.008,49.207-12.479c28.778,5.676,57.451,12.06,86.093,18.367
					c29.055,6.398,58.047,13.093,86.879,20.406c0.577,0.146,1.154,0.293,1.73,0.44c14.265,3.631,28.491,7.41,42.728,11.146
					c7.403,1.943,14.808,3.875,22.224,5.769c7.972,2.036,13.855,5.231,20.789-0.744c6.19-5.334,11.019-13.436,13.032-21.143
					c1.653-6.327,1.598-12.868,0.044-19.25c-1.677-6.891-2.973-15.811-11.694-17.001c-3.826-0.522-7.613-1.05-11.401-1.821
					c-57.159-9.485-115.029-18.52-172.144-29.477c-4.049-0.777-8.097-1.552-12.148-2.317c-14.977-2.829-40.349-8.547-55.236-11.846
					c-29.004-6.428-37.146-16.951-58.738-30.684c-8.718-5.544-17.205-11.421-25.526-17.502l5.893,51.221L523.955,147.815z"/>
				<path style="fill:#DDDDDD;" d="M457.996,95.206c-17.576,4.089-47.998,40.412-56.401,49.156
					c-8.403,8.744,2.262,13.704,2.262,13.704c2.004-0.543,4.016-1.063,6.029-1.579c5.445-1.395,10.909-2.728,16.394-3.981
					c4.009-0.915,8.027-1.798,12.049-2.663c2.011-0.432,4.02-0.876,6.037-1.285c1.613-0.327,3.306-0.188,4.964-0.387
					c1.846-0.221,3.695-0.443,5.556-0.512c3.55-0.132,7.582,0.096,11.01,1.122c1.204,0.36,3.444,1.686,3.586,3.129
					c0.017,0.171,7.775,79.169,7.775,79.169c0.092,0.938,1.118,1.527,2.018,1.157l39.885-16.375c-0.007,0-2.483-0.561-4.372-5.543
					c-1.292-3.41-2.19-6.948-2.959-10.488c-0.803-3.698-1.403-7.426-1.972-11.159l-10.672,2.951
					c-3.28,0.907-6.514-1.427-6.777-4.891l-2.02-26.614c-0.099-1.304,0.718-2.512,1.946-2.878l12.328-3.675
					c-2.297-18.972-3.606-38.038-3.919-57.106c1.697,1.267,3.403,2.522,5.113,3.772l-0.265-2.305
					C495.63,93.11,475.573,91.118,457.996,95.206z"/>
				<path style="fill:#EFEFEF;" d="M509.859,188.672c0.569,3.733,1.169,7.461,1.972,11.159c0.769,3.54,1.667,7.078,2.959,10.488
					c1.889,4.982,4.365,5.544,4.372,5.543l-3.319-28.845L509.859,188.672z"/>
				<path style="fill:#EFEFEF;" d="M504.665,153.565l7.087-2.113l-5.893-51.221c-1.711-1.25-3.417-2.506-5.113-3.772
					C501.059,115.527,502.368,134.594,504.665,153.565z"/>
			</g>
			<g>
				<path style="fill:#D67086;" d="M661.605,215.645c0.524,0.116,1.049,0.231,1.573,0.347c30.949,6.815,61.831,13.947,92.542,21.736
					c0.615,0.156,1.229,0.312,1.843,0.468c15.195,3.868,30.348,7.893,45.513,11.873c7.885,2.069,15.773,4.128,23.673,6.145
					c8.492,2.169,14.758,5.572,22.144-0.793c6.593-5.681,11.737-14.312,13.881-22.521c1.76-6.739,1.702-13.706,0.047-20.505
					c-1.787-7.341-3.167-16.841-12.456-18.109c-4.075-0.556-8.109-1.118-12.143-1.94c-54.264-9.005-111.529-18.146-165.89-28.178
					L661.605,215.645z"/>
				<path style="fill:#FFFFFF;" d="M834.901,212.83c6.896,1.404,11.375,7.871,10.005,14.444c-1.37,6.573-8.071,10.764-14.966,9.36
					c-6.896-1.404-11.375-7.871-10.005-14.444C821.305,215.617,828.006,211.427,834.901,212.83z"/>
			</g>
			<path style="opacity:0.36;fill:#FFFFFF;" d="M656.058,196.918l3.267-15.678c0.612-2.937-1.385-5.826-4.466-6.452
				c-19.706-4.009-85.169-17.483-90.311-20.599c-4.546-2.756-9.212-5.338-13.852-7.943c-2.655-1.49-12.731-9.188-15.549-8.785
				c-6.331,0.905-1.682,16.992-1.226,21.026c0.905,8.004,1.922,15.998,2.983,23.988c0.331,2.493,3.035,4.035,5.465,3.122
				c5.373-2.02,14.434-4.668,22.697-3.485c10.658,1.525,66.026,14.636,84.117,18.947
				C652.317,201.805,655.431,199.927,656.058,196.918z"/>
			<g>
				<path style="fill:#445C6E;" d="M845.529,227.799c-1.455,6.982-8.598,11.449-15.923,9.958c-7.324-1.491-12.1-8.385-10.645-15.367
					c1.455-6.982,8.598-11.449,15.923-9.958C842.208,213.923,846.984,220.817,845.529,227.799z M820.364,222.676
					c-1.302,6.245,2.969,12.41,9.521,13.744c6.551,1.334,12.939-2.661,14.241-8.906c1.302-6.245-2.969-12.411-9.521-13.744
					C828.054,212.436,821.666,216.431,820.364,222.676z"/>
			</g>
		</g>
	</g>
	<g>
		<g>
			<polygon style="fill:#CBCCD1;" points="393.397,466.233 388.36,519.43 386.935,566.029 407.582,688.974 421.658,690.069 
				439.54,575.194 467.794,461.126 			"/>
		</g>
		<g>
			<polygon style="fill:#292949;" points="421.707,688.388 421.115,695.998 405.302,702.424 398.283,694.221 406.486,687.203 			"/>
		</g>
	</g>
	<g>
		<g>
			<polygon style="fill:#CBCCD1;" points="483.643,463.827 481.478,566.029 471.645,686.719 457.57,687.814 439.688,572.939 
				411.434,458.871 			"/>
		</g>
		<g>
			<polygon style="fill:#292949;" points="457.521,686.133 458.113,693.743 473.926,700.169 480.944,691.966 472.742,684.948 			"/>
		</g>
	</g>
	<g>
		<path style="fill:#5D66D3;" d="M497.508,484.846c0.183,8.889-0.08,20.869-3.287,21.308c-0.601,0.082-1.177-0.234-1.703-0.54
			c-5.546-3.224-9.47-7.762-14.937-10.877c-5.73-3.265-12.285-5-18.714-6.214c-9.613-1.87-19.438-3.03-29.233-3.212
			c-7.699-0.143-15.436,0.555-23.103,1.235c-6.379,0.565-12.314,2.578-18.812,2.099c-6.66-0.492-13.221-2.664-18.914-6.389
			c-0.208-0.136-0.429-0.292-0.516-0.535c-0.095-0.267-0.002-0.563,0.089-0.831c1.36-3.969,2.338-7.9,4.808-11.187
			c2.759-3.671,4.719-8.335,6.713-12.513c4.156-8.708,8.07-17.835,10.974-27.112c4.389-12.61,9.403-24.893,13.646-37.545
			c2.941-8.769,5.623-17.695,9.613-26.009c3.124-6.51,8.693-16.019,15.401-18.885c2.27-0.97,4.775-1.057,7.22-1.132
			c1.066-0.033,2.092-0.119,3.153-0.046c-0.595,1.644-1.192,3.458-0.586,5.098c0.524,1.417,1.865,2.394,3.283,2.916
			c0.54,0.199,1.105,0.346,1.681,0.358c0.477,0.01,0.952-0.073,1.413-0.198c0.615-0.166,1.21-0.406,1.769-0.713
			c2.467-1.355,4.035-3.893,5.265-6.424c0.168-0.347,0.336-0.701,0.59-0.991c0.604-0.693,1.55-0.553,2.382-0.578
			c1.102-0.034,2.204-0.067,3.306-0.101c2.704-0.083,5.517-0.143,7.983,1.043c3.694,1.778,5.783,5.909,7.608,9.763
			c8.186,17.282,13.405,35.915,16.329,55.13c1.526,10.033,2.938,20.086,4.037,30.176c1.226,11.26,2.068,22.572,2.246,33.901
			C497.233,477.096,497.421,480.622,497.508,484.846z"/>
	</g>
	<g>
		<g>
			<path style="fill:#EAC1A4;" d="M438.814,351.857c-0.073,1.044-0.041,2.056,0.25,2.971c0.897,2.817,2.999,5.298,5.764,6.346
				c1.471,0.557,3.262,0.657,4.501-0.312c0.607-0.475,1.016-1.154,1.387-1.831c3.293-6.012,3.854-11.789,3.231-18.524
				c0.039,0.424,7.074-3.284,7.696-4.126c1.792-2.422,2-6.49,2.745-9.371c1.588-6.138,3.08-13.049-0.164-18.496
				c-3.359-5.641-10.627-7.572-17.19-7.744c-8.241-0.215-17.442,2.187-21.68,9.258c-3.827,6.387,1.001,15.806,2.38,22.56
				c0.68,3.33,1.717,7.13,4.811,8.536c1.643,0.747,3.635,0.666,5.105,1.719C440.371,344.799,439.048,348.499,438.814,351.857z"/>
		</g>
		<path style="fill:#292949;" d="M434.922,308.277c10.71-4.312,25.056,4.574,34.55-3.224c8.744-7.182,12.134-21.569,9.485-32.148
			c-9.561,4.418-20.715,1.94-31.223,2.652c-8.201,0.555-16.43,3.248-22.643,8.63c-13.809,11.961-10.097,27.682-1.515,41.1
			c2.333-1.317,2.103-7.149,3.498-9.748C428.795,312.332,431.519,309.647,434.922,308.277z"/>
		<path style="fill:#292949;" d="M464.764,313.898c1.641,4.635,1.217,9.874-0.726,14.391c3.881-4.345,7.03-9.342,9.274-14.719
			c0.756-1.811,1.42-3.74,1.241-5.695c-0.299-3.25-2.812-5.807-5.239-7.99c-2.209-1.988-4.552-3.96-7.373-4.894
			c-2.821-0.934-6.253-0.607-8.303,1.543c-3.718,3.899-0.179,6.315,2.644,8.068C460.129,306.991,463.182,309.427,464.764,313.898z"
			/>
	</g>
	<g>
		<path style="fill:#D67086;" d="M494.752,543.853c-0.032-2.184,1.631-3.995,3.695-4.026l19.467-0.286
			c2.064-0.03,3.779,1.732,3.811,3.916l0.041,2.774l82.609-1.212l32.81-35.429c0.094-0.101,0.212-0.145,0.329-0.137l-0.348-23.71
			c-0.112-7.632-5.226-13.803-11.365-13.713l-66.967,0.982l0.136,9.255c0.051,3.512-2.198,6.394-5.023,6.435
			c-2.825,0.042-5.157-2.773-5.209-6.285l-0.136-9.255l-55.806,0.819l0.145,9.884c0.106,3.511-2.098,6.445-4.921,6.555
			c-0.034,0.002-0.066,0.002-0.1,0.003c-2.78,0.041-5.1-2.694-5.204-6.163l-0.149-10.127l-38.135,0.559
			c-3.209,0.047-6.086,1.789-8.092,4.537l-21.5,22.754l-3.976,4.199c-1.38,2.345-2.174,5.248-2.129,8.359l0.489,33.342l85.569-1.255
			L494.752,543.853z"/>
		<path style="fill:#C45C77;" d="M604.562,546.174l-82.779,1.214l0.063,4.317c0.032,2.184-1.631,3.995-3.695,4.026l-19.467,0.286
			c-2.064,0.03-3.779-1.732-3.811-3.916l-0.063-4.317l-85.569,1.255l1.038,70.733c0.112,7.632,5.226,13.803,11.365,13.713
			l181.37-2.661c2.325-0.034,4.479-0.968,6.252-2.521l1.457-1.525l23.127-24.143c0.551-0.471,1.046-1.01,1.521-1.584l0.064-0.082
			c2.055-2.563,3.334-6.098,3.277-9.995l-1.177-80.224l-32.674,35.282C604.777,546.122,604.671,546.172,604.562,546.174z"/>
		<path style="fill:#6D2727;" d="M637.841,509.65c-0.087-0.124-0.206-0.189-0.327-0.197l0.019,1.298l0.265-0.286
			C637.991,510.257,638.011,509.892,637.841,509.65z"/>
		<path style="fill:#6D2727;" d="M408.767,548.468c0.005,0.32,0.216,0.575,0.474,0.571l-0.017-1.156
			C408.966,547.886,408.762,548.148,408.767,548.468z"/>
		<path style="fill:#6D2727;" d="M637.185,509.591l-32.81,35.429l-82.609,1.212l0.017,1.157l82.779-1.214
			c0.11-0.002,0.215-0.052,0.298-0.141l32.674-35.282l-0.019-1.298C637.398,509.446,637.279,509.489,637.185,509.591z"/>
		
			<rect x="409.227" y="547.255" transform="matrix(0.9999 -0.0147 0.0147 0.9999 -7.9866 6.6888)" style="fill:#6D2727;" width="85.579" height="1.157"/>
		<path style="fill:#211D1D;" d="M492.635,462.996c-0.061-4.145,2.602-7.557,5.935-7.605l43.715-0.641
			c3.333-0.049,6.095,3.284,6.156,7.428l0.161,10.986l10.231-0.15l-0.161-10.986c-0.164-11.158-7.599-20.13-16.574-19.998
			l-43.715,0.641c-8.975,0.132-16.144,9.317-15.98,20.476l0.162,10.986l10.23-0.15L492.635,462.996z"/>
		<path style="fill:#211D1D;" d="M548.738,482.417c0.052,3.512,2.384,6.327,5.209,6.285c2.825-0.041,5.074-2.923,5.023-6.435
			l-0.136-9.255l-10.231,0.15L548.738,482.417z"/>
		<path style="fill:#211D1D;" d="M487.92,490.422c0.034,0,0.066-0.001,0.1-0.003c2.824-0.109,5.027-3.043,4.921-6.555l-0.145-9.884
			l-10.23,0.15l0.149,10.127C482.82,487.728,485.141,490.463,487.92,490.422z"/>
		<path style="fill:#211D1D;" d="M494.873,552.101c0.032,2.184,1.747,3.946,3.811,3.916l19.467-0.286
			c2.064-0.03,3.727-1.842,3.695-4.026l-0.063-4.317l-26.973,0.396L494.873,552.101z"/>
		<path style="fill:#211D1D;" d="M517.913,539.542l-19.467,0.286c-2.064,0.03-3.727,1.842-3.695,4.026l0.041,2.775l26.973-0.396
			l-0.041-2.774C521.693,541.273,519.977,539.511,517.913,539.542z"/>
		
			<rect x="494.799" y="546.429" transform="matrix(0.9999 -0.0147 0.0147 0.9999 -7.9671 7.5128)" style="fill:#211D1D;" width="26.976" height="1.157"/>
	</g>
	<g>
		<g>
			<g>
				<path style="fill:#EACDB0;" d="M777.977,380.714c0.222-0.136,0.452-0.275,0.695-0.34c2.264-0.605,3.807,0.435,6.143,0.473
					c1.042,0.017,2.533-2.209,3.686-0.364c0.426,0.681,1.234,2.498,2.127,3.959c1.303,2.13,4.241,4.042,6.855,5.13
					c10.268,4.273,21.414,5.633,32.481,6.633c0.631,0.057,1.29,0.107,1.877-0.134c1.05-0.43,1.528-1.619,1.921-2.683
					c1.823-4.935,4.105-9.699,6.808-14.212c2.412-4.027,5.249-7.943,9.161-10.537s9.093-3.665,13.378-1.75
					c3.209,1.434,5.635,4.502,6.292,7.955c1.628,8.564-8.983,15.605-14.319,20.834c-5.049,4.948-10.444,9.542-16.134,13.735
					c-0.703,0.518-1.435,1.041-2.284,1.241c-0.906,0.213-1.852,0.038-2.765-0.141c-11.755-2.298-23.241-5.62-34.719-9.193
					c-3.154-0.982-5.391-3.497-8.316-4.378c-1.867-0.563-3.735,0.339-5.614,0.198c-1.859-0.139-4.263-0.797-5.938-1.611
					c-3.302-1.606-3.985-5.338-4.902-8.539c-0.228-0.797-0.385-1.335-0.225-2.095c0.26-1.237,1.189-2.037,2.083-2.865
					C776.796,381.539,777.366,381.09,777.977,380.714z"/>
			</g>
			<g>
				<path style="fill:#5D66D3;" d="M855.542,392.331c-6.234-3.289-12.468-6.578-18.703-9.867c0.4,0.211,13.193-29.201,14.015-30.926
					c3.135-6.583,6.433-13.38,12.032-18.052c11.954-9.975,30.087-0.421,27.137,15.413c-3.202,17.189-13.237,34.6-26.146,46.329
					c-0.281,0.255-0.58,0.517-0.951,0.599c-0.508,0.112-1.018-0.138-1.479-0.381C859.479,394.408,857.51,393.37,855.542,392.331z"/>
			</g>
		</g>
		<g>
			<g>
				<g>
					<g>
						<g>
							<g>
								<path style="fill:#EACDB0;" d="M832.623,684.704c-2.838,0.001-5.587-0.674-8.384-0.998
									c-2.299-25.614-4.519-52.331-4.248-77.986c7.117,0.571,18.167,1.142,25.284,1.713c-4.486,13.577,1.584-6.124,0,8.157
									C845.023,617.854,833.028,684.704,832.623,684.704z"/>
							</g>
							<g>
								<path style="fill:#292949;" d="M823.212,678.719c-1.763-0.343-2.773,0.346-3.91,1.298c-0.66,0.552-1.094,1.35-1.899,1.735
									c-0.805,0.385-1.606,0.441-2.576,0.501c-5.109,0.317-16.924-0.247-10.367,7.873c5.955,7.374,21.031,4.981,29.729,3.298
									c0.572-0.111,1.178-0.172,1.587-0.571c0.409-0.399,0.674-0.978,0.833-1.581c0.886-3.355,2.112-7.542-2.44-9.1
									c-1.942-0.665-3.672,0.456-5.727-0.259C826.758,681.326,824.976,679.063,823.212,678.719z"/>
							</g>
						</g>
					</g>
					<path style="fill:#292949;" d="M813.284,620.956c13.234-0.257,26.468-0.513,39.702-0.77
						c10.706-50.963,20.133-102.195,28.271-153.631c0.631-3.988,1.245-8.135,0.096-12.006c-2.174-7.321-10.014-11.498-17.52-12.9
						c-11.665-2.179-33.098,0.856-39.08,12.984c-6.322,12.818-5.261,35.711-6.794,49.875
						C813.775,543.158,812.208,582.093,813.284,620.956z"/>
				</g>
				<g>
					<g>
						<g>
							<g>
								<path style="fill:#EACDB0;" d="M907.966,683.576c2.595,0.088,6.167-0.504,8.715-0.739
									c1.315-25.261,5.001-51.737,3.965-77.118c-6.489,0.346-19.052,0.692-25.541,1.039c4.519,13.565,5.559,27.767,7.445,41.94
									C902.849,650.945,907.596,683.564,907.966,683.576z"/>
							</g>
							<g>
								<path style="fill:#292949;" d="M917.466,677.937c1.602-0.285,2.547,0.428,3.615,1.403c0.62,0.566,1.042,1.369,1.79,1.774
									c0.748,0.406,1.482,0.485,2.371,0.574c4.682,0.471,15.467,0.275,9.721,8.105c-5.218,7.11-19.076,4.28-27.081,2.348
									c-0.526-0.127-1.083-0.206-1.468-0.614c-0.386-0.407-0.646-0.988-0.81-1.589c-0.913-3.346-2.162-7.523,1.951-8.925
									c1.755-0.598,3.371,0.564,5.229-0.08C914.305,680.407,915.865,678.223,917.466,677.937z"/>
							</g>
						</g>
					</g>
					<path style="fill:#292949;" d="M929.124,620.956c-13.234-0.257-26.468-0.513-39.702-0.77
						c-10.706-50.963-20.133-102.195-28.271-153.631c-0.631-3.988-1.245-8.135-0.096-12.006c2.174-7.321,10.014-11.498,17.52-12.9
						c11.665-2.179,33.098,0.856,39.08,12.984c6.322,12.818,5.261,35.711,6.794,49.875
						C928.633,543.158,930.2,582.093,929.124,620.956z"/>
				</g>
			</g>
			<g>
				<path style="fill:#D67086;" d="M895.189,341.499c10.61,10.098,18.558,23.069,23.345,36.506
					c8.477,23.794,8.64,49.199,8.718,74.095c0.026,8.286,0.051,16.571,0.078,24.857c0.026,8.152-0.695,9.907-9.555,8.832
					c-16.418-1.991-33.485-5.376-48.36-12.672c-7.079-3.472-13.694-7.857-21.116-10.59c-10.795-3.976-21.864-2.176-32.544-4.763
					c2.71-8.19,6.76-15.668,8.644-24.26c1.886-8.6,2.776-17.39,3.369-26.172c1.037-15.348,2.947-30.605,4.098-45.895
					c0.824-10.951-0.619-19.921,11.03-27.104c6.341-3.91,17.877-10.602,26.825-8.792
					C879.215,327.46,889.259,335.854,895.189,341.499z"/>
			</g>
			<g>
				<g>
					<g>
						<path style="fill:#EACDB0;" d="M856.906,306.593c2.004,4.38,5.278,8.03,7.952,12.036c2.601,3.898,3.536,7.424,4.226,11.944
							c0.498,3.263,1.664,5.813,5.591,6.373c6.401,0.913,5.614-6.521,7.981-10.112c3.5-5.311,10.833-5.681,15.27-11.103
							c4.09-4.998,5.742-12.092,8.111-17.992c1.639-4.082,3.307-8.484,2.326-12.772c-1.554-6.795-8.851-10.35-15.311-12.967
							c-11.136-4.511-23.827-6.86-31.809,4.202C855.529,284.124,852.715,297.431,856.906,306.593z"/>
					</g>
				</g>
				<g>
					<path style="fill:#1A1A33;" d="M893.357,292.613c2.486,0.083,5.219,0.262,7.05,1.945c1.832,1.682,1.604,5.383-0.833,5.801
						c-2.21,0.379-5.05-1.938-6.411-0.221c-0.795,1.004-0.114,2.458,0.475,3.621c2.261,4.461,2.909,9.647,1.802,14.426
						c0.902,0.848,2.324-0.05,3.129-0.946c3.993-4.448,7.125-9.631,9.193-15.214c0.785,1.341,1.943,2.479,3.313,3.256
						c-0.81-2.087-0.27-4.381,0.255-6.52c1.93-7.862,3.273-17.065-2.075-23.437c-2.861-3.409-7.237-5.35-11.645-6.146
						c-4.409-0.796-8.91-0.56-13.36-0.322c-1.905,0.102-4.253,0.536-4.724,2.329c4.162,1.669,8.457,4.948,10.517,8.947
						C890.675,281.36,893.103,292.604,893.357,292.613z"/>
				</g>
				<g>
					<path style="fill:#292949;" d="M884.674,273.825c0.151,0.111,0.3,0.223,0.446,0.335c1.881,1.449,3.642,3.215,5.928,3.846
						c3.294,0.91,6.852-0.733,10.094,0.384c3.623,1.249,5.978,5.643,8.611,8.235c0.849,0.835,3.151,3.623,4.469,3.285
						c1.875-0.481,2.254-4.599,1.988-6.034c-0.421-2.271-1.982-4.215-2.21-6.516c-0.233-2.349,0.952-4.586,1.811-6.797
						c0.859-2.211,1.35-4.916-0.068-6.77c-0.722-0.945-1.906-1.616-2.141-2.793c-0.15-0.752,0.138-1.523,0.184-2.292
						c0.241-3.996-5.573-6.476-8.612-7.062c-3.819-0.736-7.655,1.015-11.487,1.799c-3.167,0.648-6.454,0.632-9.594-0.047
						c-2.814-0.608-5.556-1.747-8.442-1.697c-4.256,0.072-8.191,2.8-10.701,6.329c-3.55,4.993-5.885,13.507-4.696,20.036
						c-0.185-1.013,3.204-4.714,3.902-5.511c1.472-1.68,3.246-3.257,5.476-3.544C874.681,268.362,880.641,270.865,884.674,273.825z"
						/>
				</g>
			</g>
		</g>
		<g>
			<path style="fill:#DCDEE2;" d="M741.668,363.875l-19.026-0.517c-1.518-0.041-2.715-1.305-2.674-2.823l1.265-46.596
				c0.041-1.518,1.305-2.715,2.823-2.674l19.026,0.517L741.668,363.875z"/>
			<path style="fill:#DCDEE2;" d="M815.543,318.339l-42.742-1.161l-1.166,42.923l43.924,1.193
				c26.659-20.753,53.87-1.718,53.87-1.718l3.602-4.997C858.399,326.893,815.543,318.339,815.543,318.339z"/>
			<path style="fill:#BABABA;" d="M769.274,318.985c-17.088,8.63-26.191-7.202-26.191-7.202l-0.615,22.66l-0.018,0.65l-0.149,5.472
				l-0.018,0.65l-0.615,22.66c0,0,9.949-15.315,26.543-5.77l3.423,1.996l0.509-18.726l0.149-5.472l0.508-18.725L769.274,318.985z"/>
			
				<rect x="778.228" y="360.672" transform="matrix(0.9996 0.0271 -0.0271 0.9996 11.7874 -21.3373)" style="fill:#BABABA;" width="27.154" height="125.646"/>
			<path style="fill:#474EBB;" d="M786.14,632.078L786.14,632.078c-11.039-0.3-19.746-9.492-19.446-20.532l3.229-118.902
				l6.818-14.59l27.144,0.737l6.016,14.939l-3.229,118.902C806.372,623.671,797.18,632.378,786.14,632.078z"/>
			<path style="fill:#EED5D5;" d="M778.985,611.19c0.116-4.262,3.665-7.623,7.927-7.507c4.262,0.116,7.623,3.665,7.508,7.927
				c-0.116,4.262-3.665,7.623-7.927,7.508C782.23,619.001,778.869,615.452,778.985,611.19z"/>
			<path style="opacity:0.1;fill:#272525;" d="M768.794,621.453c3.618,6.243,9.615,10.414,16.527,10.602
				c11.47,0.312,21.002-6.572,21.477-24.071l2.653-97.672C809.451,510.312,802.948,619.83,768.794,621.453z"/>
			<polygon style="opacity:0.1;fill:#272525;" points="779.938,360.326 806.799,371.517 807.083,361.063 			"/>
		</g>
		<g>
			<g>
				<path style="fill:#EACDB0;" d="M783.369,404.071c0.236-0.11,0.48-0.221,0.729-0.258c2.318-0.344,3.733,0.865,6.049,1.168
					c1.033,0.135,2.767-1.907,3.703,0.057c0.345,0.725,0.942,2.622,1.663,4.175c1.052,2.264,3.754,4.498,6.227,5.876
					c3.323,1.852,6.883,3.734,10.417,5.058c7.424,2.781,15.994,5.059,23.822,6.379c2.755-12.83,13.224-23.681,25.946-26.895
					c1.33-0.336,2.733-0.594,4.063-0.26c1.125,0.282,2.107,0.968,2.972,1.741c9.145,8.171,1.011,16.486-5.262,23.46
					c-3.915,4.353-8.166,8.523-12.683,12.253c-6.326,5.224-13.375,4.748-21.046,2.493c-8.129-2.39-16.321-4.956-23.787-9.035
					c-3.629-1.983-6.623-4.506-9.93-6.92c-3.268-2.387-4.148-0.798-7.544-2.153c-1.895-0.756-3.97-1.169-5.698-2.268
					c-3.098-1.971-3.352-5.756-3.899-9.041c-0.136-0.818-0.231-1.37,0.015-2.107c0.399-1.199,1.413-1.889,2.395-2.609
					C782.101,404.757,782.719,404.374,783.369,404.071z"/>
			</g>
			<g>
				<path style="fill:#D67086;" d="M859.109,424.432c-5.82-3.976-11.64-7.953-17.459-11.929c0.374,0.255,16.428-27.512,17.44-29.132
					c3.863-6.184,7.913-12.562,14.006-16.566c13.011-8.551,29.939,3.003,25.208,18.398c-5.136,16.713-17.085,32.871-31.244,43.055
					c-0.308,0.221-0.636,0.448-1.013,0.487c-0.517,0.054-0.996-0.253-1.426-0.546C862.785,426.944,860.947,425.688,859.109,424.432z
					"/>
			</g>
		</g>
	</g>
	<g>
		<g>
			<path style="fill:#EACDB0;" d="M556.283,316.816c3.82-3.945,4.711-9.86,2.228-14.773c-4.539-8.978-9.077-17.956-13.616-26.934
				c-2.549-5.042-6.98-10.89-7.677-16.374c-1.233-9.693,0.96-21.097,1.864-30.788c0.459-4.921,0.05-11.758,2.084-16.286
				c0.381-0.849,6.136-7.354,5.98-7.552c-0.012-0.018-1.207-1.817-1.207-1.817l-1.8,1.213l-1.504-0.302l4.095-4.952l-5.922-4.34
				c0,0-7.907,3.137-7.907,3.137c-0.423,5.325,0.523,10.873-1.168,16.013c-0.716,2.173-1.781,4.213-2.679,6.318
				c-1.543,3.615-2.587,7.41-3.783,11.146c-1.157,3.615-3.027,7.014-4.116,10.587c-2.43,7.973-4.805,15.963-7.207,23.944
				l20.88,47.847C538.55,321.435,549.82,323.491,556.283,316.816z"/>
		</g>
		<path style="fill:#8CABEF;" d="M590.919,323.645c-8.637-5.038-16.065-12.088-21.663-20.368c-0.146-0.31-0.289-0.618-0.426-0.924
			c-0.526-1.175-6.421-14.026-6.591-13.95c-0.146,0.066-0.293,0.132-0.44,0.197l-1.277,0.65c-0.061,0-0.117,0-0.183,0.001
			c-2.995,0.041-7.993,3.597-10.771,4.845c-7.382,3.316-14.763,6.633-22.144,9.949c-0.526,0.236-1.077,0.493-1.408,0.963
			c-0.393,0.558-0.389,1.283-0.324,1.976l-1.97,1.003c0.967,1.357,1.833,2.766,2.624,4.212c0.84,5.631,2.262,11.19,5.697,15.678
			c0.203,0.266,0.421,0.517,0.636,0.773c1.786,5.956,3.452,11.991,5.995,17.619c6.837,15.129,19.823,26.876,26.351,42.14
			c5.3-1.546,8.976-6.305,11.792-11.053c5.537-9.334,9.218-19.63,12.864-29.852c1.854-5.198,3.709-10.396,5.563-15.594
			c0.324-0.909,0.653-1.847,0.603-2.81C595.714,326.541,593.132,324.936,590.919,323.645z"/>
	</g>
	<g>
		<g>
			<g>
				<path style="fill:#EAC1A4;" d="M516.865,438.69c0.08-2.889-0.127-5.77-0.344-8.649c-4.265,0.643-8.521,1.332-12.76,2.113
					c0.208,0.758,0.417,1.51,0.631,2.245c1.378,4.746,4.268,10.956,4.038,15.915c-0.043,0.93-3.01,9.092-2.792,9.22
					c0.018,0.012,1.79,1.248,1.79,1.248l1.23-1.789l1.51-0.271l-1.992,6.11l7.102,1.864l6.204-5.819
					c-1.56-5.109-4.477-9.923-4.789-15.324C516.559,443.266,516.802,440.978,516.865,438.69z"/>
			</g>
		</g>
		<path style="fill:#5D66D3;" d="M460.715,379.335c-1.181,1.966,34.005,24.011,34.005,24.011l12.551,43.518h11.534l-4.858-52.806
			l-46.954-47.191L460.715,379.335z"/>
	</g>
	<g>
		<g>
			<g>
				<path style="fill:#EAC1A4;" d="M162.962,350.155c0.254-0.005,0.517-0.008,0.754,0.058c2.208,0.611,2.994,2.252,4.945,3.44
					c0.87,0.53,3.229-0.609,3.288,1.518c0.022,0.785-0.197,2.717-0.167,4.391c0.044,2.441,1.575,5.508,3.239,7.718
					c2.237,2.971,4.674,6.064,7.309,8.647c5.535,5.426,12.293,10.857,18.768,15.137c7.544-10.378,21.2-15.932,33.845-13.766
					c1.322,0.226,2.678,0.551,3.734,1.377c0.894,0.698,1.5,1.7,1.967,2.733c4.938,10.926-5.625,15.137-13.995,18.887
					c-5.224,2.34-10.675,4.385-16.19,5.93c-7.724,2.164-13.837-1.052-19.801-6.106c-6.32-5.355-12.627-10.894-17.685-17.497
					c-2.458-3.209-4.136-6.651-6.135-10.119c-1.976-3.427-3.391-2.356-5.891-4.913c-1.395-1.426-3.086-2.617-4.195-4.284
					c-1.989-2.989-0.717-6.473,0.095-9.626c0.202-0.785,0.336-1.316,0.848-1.878c0.832-0.914,2.011-1.129,3.174-1.384
					C161.558,350.266,162.261,350.169,162.962,350.155z"/>
			</g>
			<g>
				<path style="fill:#D67086;" d="M224.643,407.529c-4.201,1.386-8.381,2.565-12.452,3.543c-6.069,1.459-12.72,2.864-18.335,0.137
					c-2.164-1.051-4.006-2.652-5.811-4.243c-8.556-7.544-16.923-15.302-25.091-23.266c3.038-5.164,6.864-9.864,11.305-13.886
					c1.246-1.129,2.675-2.259,4.355-2.325c2.496-0.097,4.393,2.121,5.878,4.129c2.419,3.271,4.838,6.541,7.258,9.812
					c0.785,1.061,1.696,2.204,2.997,2.433c0.849,0.149,1.709-0.127,2.522-0.412c15.379-5.395,27.113-12.873,40.502-21.944
					c5.902-3.998,12.049-8.096,19.081-9.262c15.017-2.491,25.574,14.541,15.248,26.43
					C260.325,392.23,242.303,401.704,224.643,407.529z"/>
			</g>
		</g>
		<g>
			<g>
				<g>
					<polygon style="fill:#292949;" points="295.062,685.293 294.826,692.563 280.052,699.361 273.017,691.856 280.523,684.822 
						295.297,678.023 					"/>
				</g>
				<g>
					<polygon style="fill:#292949;" points="325.008,466.59 324.293,488.668 291.757,583.386 295.899,682.975 281.385,685.392 
						251.877,563.676 254.16,527.986 270.113,455.564 					"/>
				</g>
			</g>
			<g>
				<g>
					<polygon style="fill:#292949;" points="233.06,470.119 214.602,561.109 209.347,681.965 222.56,684.487 251.611,577.59 
						290.398,472.551 					"/>
				</g>
				<g>
					<polygon style="fill:#292949;" points="222.784,682.9 221.421,690.044 205.768,694.462 199.987,685.954 208.495,680.173 					
						"/>
				</g>
			</g>
			<g>
				<path style="fill:#D67086;" d="M336.638,479.392c0.185,8.47-0.081,19.885-3.335,20.303c-0.61,0.078-1.194-0.223-1.727-0.514
					c-5.627-3.072-9.608-7.396-15.154-10.364c-5.813-3.111-12.464-4.764-18.986-5.921c-9.752-1.782-19.72-2.887-29.657-3.06
					c-7.811-0.136-15.66,0.529-23.438,1.176c-6.471,0.539-12.493,2.457-19.085,2c-6.757-0.468-13.413-2.538-19.189-6.088
					c-0.212-0.13-0.435-0.278-0.523-0.51c-0.096-0.254-0.003-0.536,0.09-0.791c1.38-3.782,2.372-7.527,4.878-10.659
					c2.799-3.498,4.788-7.942,6.811-11.923c4.216-8.297,8.187-16.994,11.133-25.833c4.453-12.015,9.54-23.719,13.844-35.774
					c2.983-8.355,5.705-16.86,9.753-24.781c3.17-6.203,8.819-15.264,15.625-17.995c2.303-0.924,4.845-1.008,7.325-1.079
					c7.526-0.216,15.052-0.432,22.578-0.649c2.744-0.079,5.597-0.137,8.099,0.994c3.748,1.694,5.866,5.63,7.719,9.303
					c8.305,16.467,13.6,34.221,16.566,52.529c1.548,9.56,2.981,19.138,4.096,28.753c1.244,10.729,2.098,21.507,2.279,32.302
					C336.36,472.008,336.55,475.367,336.638,479.392z"/>
			</g>
			<g>
				<path style="fill:#FFFFFF;" d="M286.422,388.562c-0.283,4.264,0.325,8.532,0.932,12.764
					c3.695,25.776,7.389,51.552,11.084,77.328c-20.208-0.176-40.415-0.352-60.623-0.528c0.732-9.658,1.463-19.315,2.195-28.973
					c0.469-6.191,0.941-12.404,2.248-18.48c2.108-9.8,6.338-19.025,10.537-28.162c7.76-16.883,15.52-33.766,23.28-50.649
					c0.415-0.903,0.852-1.836,1.617-2.486c0.916-0.778,2.166-1.039,3.362-1.247c5.777-1.004,12.299-1.852,18.104-1
					c1.451,5.284-3.902,14.472-5.887,19.387C290.386,373.671,286.94,380.771,286.422,388.562z"/>
			</g>
			<g>
				<g>
					<path style="fill:#EACDB0;" d="M282.693,351.798c4.189-0.182,8.377-0.364,12.565-0.546c0.226-3.335,0.184-6.689-0.123-10.018
						c0.037,0.404,6.74-3.13,7.333-3.931c1.707-2.307,1.906-6.184,2.616-8.929c1.513-5.848,2.934-12.433-0.156-17.624
						c-3.201-5.375-10.126-7.215-16.379-7.379c-7.852-0.205-16.619,2.084-20.657,8.821c-3.647,6.086,0.954,15.061,2.268,21.496
						c0.648,3.173,1.636,6.794,4.584,8.133c1.565,0.711,3.464,0.634,4.862,1.636C282.07,345.225,281.515,349.004,282.693,351.798z"
						/>
				</g>
				<g>
					<path style="fill:#292949;" d="M255.52,300.558c-0.467-4.34-0.934-8.68-1.4-13.021c-0.173-1.612-0.341-3.284,0.18-4.82
						c0.867-2.553,3.459-4.148,6.062-4.852c2.603-0.704,5.343-0.731,7.976-1.311c2.81-0.619,5.543-1.871,8.418-1.744
						c5.467,0.241,9.652,5.312,15.056,6.176c7.482,1.196,14.353-2.232,18.871,6.573c0.83,1.618,1.06,3.48,1.792,5.145
						c0.945,2.15,2.667,3.846,4.012,5.772c5.916,8.466,4.003,21.315-3.168,28.49c-3.477,3.479-4.899,6.626-9.689,7.741
						c2.194-4.459-0.703-22.222-6.709-24.215c-1.591-0.527-6.368,1.419-8.13,1.676c-3.903,0.57-7.697,1.196-11.369,2.717
						c-5.449,2.257-11.365,3.857-17.263,4.297c-0.754,0.056-1.598,0.084-2.167-0.413c-0.536-0.468-0.647-1.246-0.723-1.954
						C256.685,311.397,256.103,305.977,255.52,300.558z"/>
				</g>
				<path style="fill:#8CABEF;" d="M273.092,300.084c7.087-0.364,14.201-0.727,21.36-0.005c7.307,0.737,14.576,2.597,21.817,4.452
					c3.079,0.789,6.159,1.577,9.238,2.366c0.059,0.015,0-7.283-0.056-7.76c-0.21-1.797-1.02-2.549-1.948-3.909
					c-0.969-1.42-0.837-1.546-0.978-3.237c-0.309-3.701-1.721-7.457-3.008-10.967c-1.816-4.955-3.865-9.908-6.915-14.154
					c-9.684-13.481-25.861-13.002-40.16-6.72c-12.763,5.606-17.306,16.095-18.405,29.172c-0.054,0.646-0.116,1.309-0.393,1.858
					c-1.251,2.487-2.428,1.838-2.276,5.302c0.032,0.726,1.416,8.392,1.58,8.291c1.739-1.072,4-1.867,5.905-2.596
					c1.484-0.567,3.033-0.953,4.602-1.238C266.614,300.364,269.864,300.25,273.092,300.084z"/>
			</g>
		</g>
		<g>
			
				<rect x="201.963" y="344.001" transform="matrix(0.8678 0.4969 -0.4969 0.8678 207.1835 -54.4938)" style="fill:#8B8D96;" width="8.082" height="36.236"/>
			<polygon style="fill:#DCDEE2;" points="201.782,345.126 196.516,354.322 194.477,357.882 189.211,367.079 193.494,375.833 
				201.478,361.891 203.516,358.331 211.5,344.388 			"/>
			<path style="fill:#474EBB;" d="M333.695,398.929l-93.488-53.534l-20.128,0.275l-8.612,15.039l-3.914,6.836l-8.612,15.039
				l9.658,24.01c2.97,7.382,8.253,13.603,15.058,17.727l27.452,16.638c3.901,2.365,5.95,6.882,5.159,11.375l-10.121,57.475
				c-1.1,6.246,1.836,12.512,7.34,15.663l8.654,4.956c9.043,5.178,20.484-0.183,22.291-10.445l8.21-46.621
				c0.542-3.08,3.68-4.874,6.665-3.941c5.496,1.718,13.993,1.967,20.232-8.928l7.825-13.665l4.603-8.039l1.957-3.418l1.957-3.418
				l4.603-8.039C345.509,415.14,342.47,403.954,333.695,398.929z"/>
			
				<rect x="186.627" y="348.228" transform="matrix(-0.8678 -0.4969 0.4969 -0.8678 181.491 756.1179)" style="fill:#8B8D96;" width="9.406" height="11.375"/>
			
				<rect x="94.687" y="316.352" transform="matrix(-0.8678 -0.4969 0.4969 -0.8678 86.9325 663.2183)" style="fill:#8B8D96;" width="74.009" height="7.385"/>
			
				<rect x="128.627" y="285.831" transform="matrix(0.4969 -0.8678 0.8678 0.4969 -214.2298 274.4682)" style="opacity:0.1;fill:#272525;" width="1.969" height="72.348"/>
			
				<rect x="187.751" y="353.042" transform="matrix(0.4969 -0.8678 0.8678 0.4969 -215.2673 344.0508)" style="opacity:0.1;fill:#272525;" width="2.708" height="9.296"/>
			<polygon style="fill:#DCDEE2;" points="101.626,308.384 96.693,305.559 106.319,299.956 111.191,302.816 			"/>
			<polygon style="fill:#DCDEE2;" points="111.36,313.958 106.428,311.134 116.054,305.53 120.925,308.39 			"/>
			<polygon style="fill:#DCDEE2;" points="121.094,319.532 116.162,316.708 125.788,311.105 130.659,313.965 			"/>
			<polygon style="fill:#DCDEE2;" points="130.829,325.107 125.896,322.282 135.522,316.679 140.394,319.539 			"/>
			<polygon style="fill:#DCDEE2;" points="140.563,330.681 135.631,327.856 145.257,322.253 150.128,325.113 			"/>
			<polygon style="fill:#DCDEE2;" points="150.297,336.255 145.365,333.431 154.991,327.827 159.862,330.687 			"/>
			<polygon style="fill:#DCDEE2;" points="160.032,341.829 155.1,339.005 164.725,333.402 169.597,336.262 			"/>
			
				<rect x="168.009" y="334.471" transform="matrix(0.8678 0.4969 -0.4969 0.8678 195.8517 -42.738)" style="fill:#DCDEE2;" width="20.472" height="24.464"/>
			<polygon style="fill:#8B8D96;" points="166.606,330.198 163.051,336.406 161.674,338.81 158.119,345.019 163.284,352.232 
				168.674,342.818 170.051,340.415 175.441,331.002 			"/>
			<path style="fill:#DDDAE8;" d="M264.603,510.623l6.278-35.536c1.125-6.369-1.867-12.759-7.479-15.973l-7.564-4.331l-9.399,53.376
				l10.539,6.035C260.07,515.966,263.983,514.133,264.603,510.623z"/>
			
				<rect x="226.738" y="356.304" transform="matrix(0.8678 0.4969 -0.4969 0.8678 214.8799 -64.2668)" style="fill:#292949;" width="2.954" height="30.766"/>
			
				<rect x="232.891" y="359.827" transform="matrix(0.8678 0.4969 -0.4969 0.8678 217.4311 -66.8578)" style="fill:#292949;" width="2.954" height="30.766"/>
			<path style="fill:#FFFFFF;" d="M320.008,416.509l-32.691-18.72c-0.883-0.506-1.189-1.632-0.683-2.515l2.474-4.321
				c0.506-0.883,1.632-1.189,2.515-0.683l32.691,18.72c0.883,0.506,1.189,1.632,0.683,2.515l-2.474,4.321
				C322.017,416.708,320.891,417.014,320.008,416.509z"/>
		</g>
		<g>
			<path style="fill:#EACDB0;" d="M322.556,423.283c0.269,0.985,0.145,2.318-0.821,2.648c-0.579,0.198-1.2-0.07-1.79-0.231
				c-2.233-0.609-4.817,0.519-5.888,2.571c-1.262,2.417-0.344,5.547,1.585,7.475c1.928,1.927,4.647,2.847,7.33,3.333
				c1.684,0.305,3.587,0.413,4.938-0.639c0.694-0.54,1.15-1.325,1.556-2.105c2.081-4.01,3.995-9.313,1.049-13.401
				C328.196,419.718,320.737,416.619,322.556,423.283z"/>
			<path style="fill:#D67086;" d="M342.085,424.21c-0.302-0.458-0.658-0.891-1.072-1.294c-3.343-3.254-7.757-6.49-12.698-5.439
				c0.635,9.034-1.594,18.247-6.287,25.992c-0.371,0.613-0.773,1.327-0.542,2.005c0.434,1.275,4.301,2.507,5.482,2.668
				c5.208,0.708,10.838-1.407,13.459-5.057c1.537-2.141,2.059-4.635,2.537-7.072C343.7,432.25,344.307,427.571,342.085,424.21z"/>
		</g>
	</g>
	<g>
		<g>
			<path style="fill:#353A85;" d="M361.097,308.121l-0.469,0.143c-7.368,2.246-15.162-1.907-17.408-9.275l-19.89-65.257
				l27.153-8.276l19.89,65.257C372.618,298.081,368.465,305.875,361.097,308.121z"/>
		</g>
		<g>
			<g>
				<path style="fill:#EED5D5;" d="M372.23,138.624l-115.383,35.168c-9.03,2.753-18.582-2.337-21.335-11.367l-2.349-7.707
					c-2.752-9.03,2.337-18.582,11.367-21.335l115.383-35.168c9.03-2.752,18.582,2.337,21.335,11.367l2.349,7.707
					C386.349,126.32,381.26,135.872,372.23,138.624z"/>
			</g>
			<g style="opacity:0.1;">
				<path style="fill:#272525;" d="M258.76,173.209l111.555-34.001c10.088-3.075,15.859-13.463,12.89-23.203L235.12,161.141
					C238.089,170.881,248.673,176.284,258.76,173.209z"/>
			</g>
		</g>
		<g>
			<path style="fill:#8B8D96;" d="M339.906,228.678l-6.003,1.83l-3.703-12.15c-0.541-1.773-2.036-3.118-3.902-3.506l-84.883-13.832
				c-4.19-0.865-7.439-3.784-8.615-7.642l-6.406-21.017c-1.803-5.917,1.715-12.249,7.843-14.117l1.766,5.796
				c-2.818,0.859-4.436,3.771-3.607,6.491l6.406,21.017c0.541,1.773,2.035,3.116,3.9,3.504l84.885,13.832
				c4.191,0.869,7.44,3.788,8.616,7.644L339.906,228.678z"/>
		</g>
		<g style="opacity:0.1;">
			<path style="fill:#272525;" d="M348.254,306.135c3.465,2.514,8.099,3.431,12.608,2.057c7.498-2.285,11.788-10.007,9.581-17.247
				l-15.84-51.97C354.603,238.975,370.079,298,348.254,306.135z"/>
		</g>
		<g>
			<path style="fill:#EED5D5;" d="M352.779,297.575c-0.721-2.365,0.68-4.887,3.13-5.633c2.449-0.747,5.019,0.565,5.74,2.93
				c0.721,2.365-0.68,4.887-3.13,5.633C356.07,301.251,353.5,299.94,352.779,297.575z"/>
		</g>
	</g>
</g>
</svg>
